<?xml version="1.0" encoding="UTF-8" standalone="no"?>
<svg
   xmlns:dc="http://purl.org/dc/elements/1.1/"
   xmlns:cc="http://creativecommons.org/ns#"
   xmlns:rdf="http://www.w3.org/1999/02/22-rdf-syntax-ns#"
   xmlns:svg="http://www.w3.org/2000/svg"
   xmlns="http://www.w3.org/2000/svg"
   xmlns:sodipodi="http://sodipodi.sourceforge.net/DTD/sodipodi-0.dtd"
   xmlns:inkscape="http://www.inkscape.org/namespaces/inkscape"
   width="550.75769"
   height="550.75745"
   viewBox="0 0 55.075769 55.075745"
   version="1.1"
   id="svg27"
   sodipodi:docname="question.svg"
   inkscape:version="0.92.2 5c3e80d, 2017-08-06">
  <metadata
     id="metadata31">
    <rdf:RDF>
      <cc:Work
         rdf:about="">
        <dc:format>image/svg+xml</dc:format>
        <dc:type
           rdf:resource="http://purl.org/dc/dcmitype/StillImage" />
        <dc:title />
      </cc:Work>
    </rdf:RDF>
  </metadata>
  <sodipodi:namedview
     pagecolor="#ffffff"
     bordercolor="#666666"
     borderopacity="1"
     objecttolerance="10"
     gridtolerance="10"
     guidetolerance="10"
     inkscape:pageopacity="0"
     inkscape:pageshadow="2"
     inkscape:window-width="2048"
     inkscape:window-height="1088"
     id="namedview29"
     showgrid="false"
     fit-margin-top="0"
     fit-margin-left="0"
     fit-margin-right="0"
     fit-margin-bottom="0"
     inkscape:zoom="0.38064516"
     inkscape:cx="-866.81668"
     inkscape:cy="270.06105"
     inkscape:window-x="0"
     inkscape:window-y="27"
     inkscape:window-maximized="1"
     inkscape:current-layer="svg27" />
  <defs
     id="defs19">
    <linearGradient
       id="b"
       x1="54.509998"
       x2="9.5471001"
       y1="41.179001"
       y2="16.247999"
       gradientUnits="userSpaceOnUse"
       gradientTransform="matrix(1.0286,0,0,1.0286,-1.8662,-1.0242999)">
      <stop
         stop-color="#2b79e0"
         offset="0"
         id="stop2" />
      <stop
         stop-color="#008df7"
         offset="1"
         id="stop4" />
    </linearGradient>
    <linearGradient
       id="c"
       x1="52.778"
       x2="22.014"
       y1="-13.239"
       y2="51.987"
       gradientUnits="userSpaceOnUse"
       gradientTransform="matrix(1.0286,0,0,1.0286,-1.8662,-1.0242999)">
      <stop
         stop-color="#d8ebff"
         offset="0"
         id="stop7" />
      <stop
         stop-color="#4fa9ff"
         offset="1"
         id="stop9" />
    </linearGradient>
    <radialGradient
       id="a"
       cx="32.5"
       cy="29.5"
       r="26.5"
       gradientUnits="userSpaceOnUse"
       gradientTransform="matrix(1.0952,0,0,1.0952,-4.0262,0.093121)">
      <stop
         stop-color="#c0c0c0"
         offset="0"
         id="stop12" />
      <stop
         stop-color="#c0c0c0"
         offset=".88"
         id="stop14" />
      <stop
         stop-color="#c0c0c0"
         stop-opacity="0"
         offset="1"
         id="stop16" />
    </radialGradient>
  </defs>
  <path
     d="m 54.075765,27.537873 a 26.53788,26.53788 0 1 0 -53.0757601,0 26.53788,26.53788 0 1 0 53.0757601,0"
     id="path23"
     inkscape:connector-curvature="0"
     style="fill:#3e9ade;stroke:url(#b);stroke-width:2.00000978" />
  <path
     d="m 31.301485,32.785573 h -7.9511 v -1.0948 c 0,-1.2214 0.24227,-2.3013 0.72683,-3.2397 0.48454,-0.95328 1.505,-2.1598 3.0615,-3.6196 l 1.4096,-1.2959 c 0.83694,-0.77453 1.4463,-1.5044 1.8281,-2.1896 0.39644,-0.68516 0.59465,-1.3704 0.59467,-2.0556 -2e-5,-1.0426 -0.35242,-1.8544 -1.0572,-2.4354 -0.70482,-0.59579 -1.6886,-0.89369 -2.9514,-0.89372 -1.1894,3e-5 -2.4742,0.25325 -3.8544,0.75966 -1.3802,0.49158 -2.8192,1.2289 -4.3169,2.212 v -7.0157 c 1.7767,-0.62557 3.3992,-1.0873 4.8676,-1.3853 1.4684,-0.298 2.8853,-0.44683 4.2509,-0.44686 3.5827,3e-5 6.3139,0.7448 8.1934,2.2343 1.8794,1.4747 2.8192,3.6345 2.8192,6.4795 -2e-5,1.4598 -0.28634,2.7706 -0.85898,3.9324 -0.57267,1.147 -1.5491,2.3833 -2.9293,3.7089 l -1.4096,1.2736 c -0.99849,0.92352 -1.6519,1.6683 -1.9602,2.2343 -0.30836,0.55114 -0.46253,1.1618 -0.46251,1.8321 v 1.0054 m -7.4527,4.6492 7.1066,-0.08787 0.12978,6.6995 h -7.3021"
     id="path25"
     inkscape:connector-curvature="0"
     style="fill:#ffffff" />
</svg>
